<svg width="368" height="90" viewBox="0 0 368 90" fill="none" xmlns="http://www.w3.org/2000/svg">
<rect width="368" height="90" rx="12" fill="#FEE500"/>
<g clip-path="url(#clip0_122_91)">
<path fill-rule="evenodd" clip-rule="evenodd" d="M94 28.2C84.0583 28.2 76 34.4259 76 42.1045C76 46.88 79.1168 51.0899 83.863 53.5939L81.8661 60.8889C81.6896 61.5335 82.4268 62.0473 82.9929 61.6738L91.7467 55.8964C92.4854 55.9676 93.2362 56.0093 94 56.0093C103.941 56.0093 112 49.7836 112 42.1045C112 34.4259 103.941 28.2 94 28.2Z" fill="black"/>
</g>
<path d="M142.43 32.93C142.4 42.08 138.23 48.2 130.58 52.22L128.6 50C132.47 48.23 135.71 45.38 137.54 41.69L129.71 42.53L129.23 39.86L138.56 39.17C138.89 37.97 139.13 36.74 139.22 35.42H130.58V32.93H142.43ZM149.66 30.14V40.58H153.8V43.13H149.66V56.87H146.57V30.14H149.66ZM168.387 32.93C168.357 42.08 164.187 48.2 156.537 52.22L154.557 50C158.427 48.23 161.667 45.38 163.497 41.69L155.667 42.53L155.187 39.86L164.517 39.17C164.847 37.97 165.087 36.74 165.177 35.42H156.537V32.93H168.387ZM175.617 30.14V40.58H179.757V43.13H175.617V56.87H172.527V30.14H175.617ZM204.964 53.45H180.814V50.99H191.314V46.43C186.364 45.95 183.214 43.13 183.214 39.14C183.214 34.73 187.084 31.79 192.874 31.79C198.754 31.79 202.594 34.73 202.594 39.14C202.594 43.16 199.384 45.98 194.374 46.46V50.99H204.964V53.45ZM199.504 39.17C199.504 36.32 196.894 34.31 192.874 34.31C188.944 34.31 186.304 36.32 186.304 39.17C186.304 41.99 188.944 43.91 192.874 43.91C196.864 43.91 199.504 41.99 199.504 39.17ZM236.462 46.55H228.212V51.02H238.802V53.48H214.652V51.02H225.152V46.55H217.742V37.91H232.622V34.46H217.652V32H235.682V40.4H220.832V44.06H236.462V46.55ZM264.759 52.97H240.609V50.48H264.759V52.97ZM261.609 33.02C261.609 40.1 261.159 45.11 260.439 48.62L257.409 48.23C258.069 45.56 258.519 39.77 258.519 35.45H243.399V33.02H261.609ZM288.556 49.52H285.496V30.14H288.556V49.52ZM289.186 56.09H270.886V47.69H273.946V53.63H289.186V56.09ZM281.056 38.66C281.056 42.47 278.296 45.2 274.216 45.2C270.136 45.2 267.316 42.47 267.316 38.69C267.316 34.88 270.106 32.12 274.216 32.12C278.296 32.12 281.056 34.85 281.056 38.66ZM277.996 38.66C277.996 36.32 276.556 34.67 274.216 34.67C271.936 34.67 270.406 36.38 270.406 38.66C270.406 40.85 271.936 42.59 274.216 42.59C276.556 42.59 277.996 40.85 277.996 38.66Z" fill="black" fill-opacity="0.85"/>
<defs>
<clipPath id="clip0_122_91">
<rect width="35.9999" height="36" fill="white" transform="translate(76 27)"/>
</clipPath>
</defs>
</svg>
