<svg width="17" height="16" viewBox="0 0 17 16" fill="none" xmlns="http://www.w3.org/2000/svg">
<path fill-rule="evenodd" clip-rule="evenodd" d="M0.5 14.6667V14.0958C0.5 13.525 0.915 12.86 1.42833 12.6092L6.145 10.3075C6.82917 9.97417 6.98833 9.23417 6.495 8.64917L6.19333 8.29167C5.58 7.565 5.08333 6.20833 5.08333 5.25833V3.83333C5.08333 2.94928 5.43452 2.10143 6.05964 1.47631C6.68476 0.851189 7.53261 0.5 8.41667 0.5C9.30072 0.5 10.1486 0.851189 10.7737 1.47631C11.3988 2.10143 11.75 2.94928 11.75 3.83333V5.25833C11.75 6.20833 11.25 7.56917 10.64 8.29333L10.3392 8.65C9.8475 9.2325 10.0008 9.97333 10.6883 10.3083L15.405 12.61C15.9175 12.86 16.3333 13.5208 16.3333 14.0958V14.6667C16.3333 14.8877 16.2455 15.0996 16.0893 15.2559C15.933 15.4122 15.721 15.5 15.5 15.5H1.33333C1.11232 15.5 0.900358 15.4122 0.744078 15.2559C0.587797 15.0996 0.5 14.8877 0.5 14.6667Z" fill="#707274"/>
</svg>
